<svg id="Group_3533" data-name="Group 3533" xmlns="http://www.w3.org/2000/svg" xmlns:xlink="http://www.w3.org/1999/xlink" width="18" height="18" viewBox="0 0 18 18">
  <defs>
    <clipPath id="clip-path">
      <path id="Path_2954" data-name="Path 2954" d="M0-18H18V0H0Z" transform="translate(0 18)" fill="#2c4251"/>
    </clipPath>
  </defs>
  <g id="Group_3532" data-name="Group 3532" clip-path="url(#clip-path)">
    <g id="Group_3523" data-name="Group 3523">
      <path id="Path_2945" data-name="Path 2945" d="M0,0V-8A1,1,0,0,1,1-9,1,1,0,0,1,2-8V0Z" transform="translate(8 9)" fill="#2c4251"/>
    </g>
    <g id="Group_3524" data-name="Group 3524">
      <path id="Path_2946" data-name="Path 2946" d="M0,0A1,1,0,0,1-1-1V-9H1v8A1,1,0,0,1,0,0" transform="translate(16 18)" fill="#2c4251"/>
    </g>
    <g id="Group_3525" data-name="Group 3525">
      <path id="Path_2947" data-name="Path 2947" d="M0,0A1,1,0,0,1-1-1V-3H1v2A1,1,0,0,1,0,0" transform="translate(9 18)" fill="#2c4251"/>
    </g>
    <g id="Group_3526" data-name="Group 3526">
      <path id="Path_2948" data-name="Path 2948" d="M0,0V-2A1,1,0,0,1,1-3,1,1,0,0,1,2-2V0Z" transform="translate(15 3)" fill="#2c4251"/>
    </g>
    <g id="Group_3527" data-name="Group 3527">
      <path id="Path_2949" data-name="Path 2949" d="M0,0A1,1,0,0,1-1-1V-9H1v8A1,1,0,0,1,0,0" transform="translate(2 18)" fill="#2c4251"/>
    </g>
    <g id="Group_3528" data-name="Group 3528">
      <path id="Path_2950" data-name="Path 2950" d="M0,0V-2A1,1,0,0,1,1-3,1,1,0,0,1,2-2V0Z" transform="translate(1 3)" fill="#2c4251"/>
    </g>
    <g id="Group_3529" data-name="Group 3529">
      <path id="Path_2951" data-name="Path 2951" d="M0,0A1,1,0,0,1-1,1H-3A1,1,0,0,1-4,0V-2A1,1,0,0,1-3-3h2A1,1,0,0,1,0-2Z" transform="translate(11 13)" fill="#2c4251"/>
    </g>
    <g id="Group_3530" data-name="Group 3530">
      <path id="Path_2952" data-name="Path 2952" d="M0,0A1,1,0,0,1-1,1H-3A1,1,0,0,1-4,0V-2A1,1,0,0,1-3-3h2A1,1,0,0,1,0-2Z" transform="translate(18 7)" fill="#2c4251"/>
    </g>
    <g id="Group_3531" data-name="Group 3531">
      <path id="Path_2953" data-name="Path 2953" d="M0,0A1,1,0,0,1-1,1H-3A1,1,0,0,1-4,0V-2A1,1,0,0,1-3-3h2A1,1,0,0,1,0-2Z" transform="translate(4 7)" fill="#2c4251"/>
    </g>
  </g>
</svg>
