<svg xmlns="http://www.w3.org/2000/svg" width="20" height="20" viewBox="0 0 20 20">
  <g id="Group_3544" data-name="Group 3544" transform="translate(0 0)">
    <path id="Path_1063" data-name="Path 1063" d="M110.87-406.522h2.174v1.739H110.87Z" transform="translate(-108.261 416.957)" fill="#2c4251"/>
    <path id="Path_1064" data-name="Path 1064" d="M110.87-258.7h2.174v1.739H110.87Z" transform="translate(-108.261 272.608)" fill="#2c4251"/>
    <g id="Group_1251" data-name="Group 1251" transform="translate(0 0)">
      <path id="Path_1065" data-name="Path 1065" d="M-252.608,0V7.391H-258.7V20h11.3V13.913h3.478V20h5.217V0Zm10,3.478h1.739V5.217h-1.739Zm-3.913,0h1.739V5.217h-1.739Zm-3.913,0h1.739V5.217h-1.739Zm7.826,3.478h1.739V8.7h-1.739Zm-3.913,0h1.739V8.7h-1.739Zm-3.913,0h1.739V8.7h-1.739ZM-257.391,8.7h4.783v10h-4.783Zm14.783,1.739h1.739v1.739h-1.739Zm-3.913,0h1.739v1.739h-1.739Zm-3.913,0h1.739v1.739h-1.739Zm7.826,3.478h1.739v1.739h-1.739Zm-7.826,0h1.739v1.739h-1.739Z" transform="translate(258.695 0)" fill="#2c4251"/>
    </g>
  </g>
</svg>
