<svg xmlns="http://www.w3.org/2000/svg" xmlns:xlink="http://www.w3.org/1999/xlink" width="18.311" height="17.804" viewBox="0 0 18.311 17.804">
  <defs>
    <clipPath id="clip-path">
      <path id="Path_2965" data-name="Path 2965" d="M0-17.8H18.311V0H0Z" transform="translate(0 17.804)" fill="none"/>
    </clipPath>
  </defs>
  <g id="Group_3549" data-name="Group 3549" transform="translate(0 0)">
    <g id="Group_3548" data-name="Group 3548" clip-path="url(#clip-path)">
      <g id="Group_3545" data-name="Group 3545">
        <path id="Path_2962" data-name="Path 2962" d="M0,0A14.609,14.609,0,0,0,1.136,4.778L2.918,2.932A9.6,9.6,0,0,1,1.919,0ZM8.771,12.45a15.912,15.912,0,0,0,5.507,1.324V11.525a13.955,13.955,0,0,1-3.9-1.169ZM15.278,15.8C5.571,15.8-2.033,8.423-2.033-1a1,1,0,0,1,1-1h3.82a1,1,0,0,1,.994.889A8.523,8.523,0,0,0,4.963,2.532l.06.114A1,1,0,0,1,4.856,3.8L2.105,6.653a14.745,14.745,0,0,0,4.869,4.853L9.287,8.494a1,1,0,0,1,1.245-.284,12.448,12.448,0,0,0,4.83,1.426,1,1,0,0,1,.916,1V14.8a1,1,0,0,1-1,1" transform="translate(2.033 2)" fill="#42b846"/>
      </g>
      <g id="Group_3546" data-name="Group 3546">
        <path id="Path_2963" data-name="Path 2963" d="M0,0A1,1,0,0,1-.979-.8,2.766,2.766,0,0,0-3.211-2.955a1,1,0,0,1-.8-1.169,1,1,0,0,1,1.169-.8A4.755,4.755,0,0,1,.981-1.2,1,1,0,0,1,.2-.02.964.964,0,0,1,0,0" transform="translate(13.38 7.912)" fill="#42b846"/>
      </g>
      <g id="Group_3547" data-name="Group 3547">
        <path id="Path_2964" data-name="Path 2964" d="M0,0A1,1,0,0,1-.992-.885,5.766,5.766,0,0,0-6.2-5.91a1,1,0,0,1-.887-1.1,1,1,0,0,1,1.1-.886A7.755,7.755,0,0,1,1-1.115,1,1,0,0,1,.117-.007.918.918,0,0,1,0,0" transform="translate(16.443 7.904)" fill="#42b846"/>
      </g>
    </g>
  </g>
</svg>
