<svg xmlns="http://www.w3.org/2000/svg" width="15.996" height="19.313" viewBox="0 0 15.996 19.313">
  <g id="pin" transform="translate(-203 -168.001)">
    <path id="Subtraction_7" data-name="Subtraction 7" d="M3997-9496.685h0l-5.655-5.658A7.945,7.945,0,0,1,3989-9508a7.946,7.946,0,0,1,2.343-5.656A7.946,7.946,0,0,1,3997-9516a7.946,7.946,0,0,1,5.657,2.344,8.008,8.008,0,0,1,0,11.312l-5.657,5.658Zm0-14.17a2.86,2.86,0,0,0-2.857,2.856,2.86,2.86,0,0,0,2.857,2.856,2.86,2.86,0,0,0,2.856-2.856A2.86,2.86,0,0,0,3997-9510.854Z" transform="translate(-3786 9683.999)" fill="#fff"/>
  </g>
</svg>
