<svg xmlns="http://www.w3.org/2000/svg" width="18" height="17.984" viewBox="0 0 18 17.984">
  <g id="Group_3550" data-name="Group 3550" transform="translate(-20.526 -729.731)">
    <g id="Group_380" data-name="Group 380" transform="translate(27.917 730.731)">
      <path id="Path_166" data-name="Path 166" d="M0-2.137a4.022,4.022,0,0,0,5.63.812A4.142,4.142,0,0,0,6.066-1.7L8.48-4.116a4.023,4.023,0,0,0-.1-5.688,4.022,4.022,0,0,0-5.588,0L1.408-8.428" transform="translate(0 10.933)" fill="none" stroke="#2c4251" stroke-linecap="round" stroke-linejoin="round" stroke-width="2"/>
    </g>
    <g id="Group_381" data-name="Group 381" transform="translate(21.526 736.305)">
      <path id="Path_167" data-name="Path 167" d="M-2.334-.392A4.023,4.023,0,0,0-7.965-1.2,4.042,4.042,0,0,0-8.4-.826l-2.414,2.414a4.022,4.022,0,0,0,.1,5.687,4.022,4.022,0,0,0,5.589,0L-3.75,5.9" transform="translate(11.943 2.005)" fill="none" stroke="#2c4251" stroke-linecap="round" stroke-linejoin="round" stroke-width="2"/>
    </g>
  </g>
</svg>
