<?xml version="1.0" standalone="no"?>
<!DOCTYPE svg PUBLIC "-//W3C//DTD SVG 20010904//EN"
 "http://www.w3.org/TR/2001/REC-SVG-20010904/DTD/svg10.dtd">
<svg version="1.0" xmlns="http://www.w3.org/2000/svg"
 width="544.000000pt" height="544.000000pt" viewBox="0 0 544.000000 544.000000"
 preserveAspectRatio="xMidYMid meet">
<metadata>
Created by potrace 1.11, written by Peter Selinger 2001-2013
</metadata>
<g transform="translate(0.000000,544.000000) scale(0.100000,-0.100000)"
fill="#000000" stroke="none">
<path d="M2487 5432 c-33 -2 -45 -7 -41 -15 5 -9 4 -9 -5 -1 -13 11 -127 -3
-291 -37 -25 -5 -58 -12 -74 -15 -16 -3 -74 -19 -130 -36 -316 -94 -643 -264
-916 -476 -76 -60 -327 -301 -391 -377 -153 -181 -326 -461 -422 -685 -57
-135 -125 -338 -143 -430 -3 -14 -12 -53 -20 -88 -8 -35 -17 -87 -20 -115 -4
-29 -8 -55 -10 -58 -25 -44 -25 -566 1 -749 9 -65 29 -175 42 -225 8 -33 16
-67 18 -75 17 -88 82 -277 141 -411 141 -324 323 -590 573 -839 107 -106 158
-151 301 -263 8 -7 56 -39 105 -73 320 -217 712 -371 1095 -429 25 -4 52 -9
60 -10 148 -27 560 -24 720 4 30 6 71 12 90 15 205 27 515 127 735 237 164 81
212 109 340 197 742 508 1186 1336 1189 2217 0 114 -12 344 -19 355 -2 3 -6
28 -9 55 -40 361 -221 828 -448 1153 -300 431 -707 765 -1173 962 -185 79
-432 153 -585 176 -19 3 -42 7 -50 9 -8 2 -35 7 -60 10 -25 3 -61 8 -80 11
-40 6 -451 11 -523 6z m383 -903 c113 -31 186 -74 270 -159 238 -238 238 -601
1 -840 -346 -349 -934 -161 -1017 325 -20 117 0 244 58 364 122 251 419 385
688 310z m-1625 -799 c28 -230 151 -513 310 -710 l63 -78 -97 -100 c-54 -55
-127 -142 -164 -194 -126 -175 -249 -458 -280 -645 l-13 -73 -46 117 c-49 126
-89 272 -112 418 -15 93 -16 431 -2 525 15 95 61 276 86 335 4 11 14 36 21 55
23 63 91 204 132 270 48 81 89 141 93 138 1 -2 5 -28 9 -58z m3095 -164 c85
-166 156 -370 175 -501 3 -22 8 -46 10 -53 26 -76 26 -488 0 -582 -2 -8 -6
-31 -9 -50 -6 -39 -42 -181 -55 -220 -25 -70 -67 -178 -77 -199 -11 -21 -13
-19 -24 35 -45 218 -128 418 -248 599 -77 117 -106 152 -209 257 l-85 88 55
67 c142 175 254 404 302 618 13 60 23 121 24 154 1 24 81 -96 141 -213z
m-1410 -1136 c458 -129 700 -649 500 -1077 -48 -104 -89 -162 -161 -233 -99
-98 -223 -169 -360 -206 -93 -25 -288 -23 -390 4 -136 36 -257 108 -359 211
-243 246 -294 638 -123 932 122 210 337 356 573 390 86 12 237 2 320 -21z"/>
</g>
</svg>
