<?xml version="1.0"?>
<svg xmlns="http://www.w3.org/2000/svg" id="Layer_1" height="512px" viewBox="0 0 128 128" width="512px" data-name="Layer 1" class=""><g><path d="m30.6 59.916h10.17a1.751 1.751 0 0 0 1.75-1.75v-10.166a1.751 1.751 0 0 0 -1.75-1.75h-10.17a1.75 1.75 0 0 0 -1.749 1.75v10.166a1.75 1.75 0 0 0 1.749 1.75zm1.75-10.165h6.67v6.665h-6.67z" data-original="#000000" class="active-path" data-old_color="#000000" fill="#0A184E"/><path d="m30.6 81.749h10.17a1.751 1.751 0 0 0 1.751-1.749v-10.166a1.751 1.751 0 0 0 -1.75-1.75h-10.171a1.75 1.75 0 0 0 -1.75 1.75v10.166a1.75 1.75 0 0 0 1.75 1.749zm1.75-10.165h6.67v6.665h-6.67z" data-original="#000000" class="active-path" data-old_color="#000000" fill="#0A184E"/><path d="m30.6 103.582h10.17a1.751 1.751 0 0 0 1.75-1.75v-10.164a1.751 1.751 0 0 0 -1.75-1.75h-10.17a1.75 1.75 0 0 0 -1.75 1.75v10.164a1.75 1.75 0 0 0 1.75 1.75zm1.75-10.164h6.67v6.664h-6.67z" data-original="#000000" class="active-path" data-old_color="#000000" fill="#0A184E"/><path d="m30.6 38.082h10.17a1.751 1.751 0 0 0 1.75-1.75v-10.164a1.751 1.751 0 0 0 -1.75-1.75h-10.17a1.75 1.75 0 0 0 -1.75 1.75v10.164a1.75 1.75 0 0 0 1.75 1.75zm1.75-10.164h6.67v6.664h-6.67z" data-original="#000000" class="active-path" data-old_color="#000000" fill="#0A184E"/><path d="m50.94 31.751h46.46a1.75 1.75 0 0 0 0-3.5h-46.46a1.75 1.75 0 0 0 0 3.5z" data-original="#000000" class="active-path" data-old_color="#000000" fill="#0A184E"/><path d="m50.94 54.833h46.46a1.75 1.75 0 0 0 0-3.5h-46.46a1.75 1.75 0 0 0 0 3.5z" data-original="#000000" class="active-path" data-old_color="#000000" fill="#0A184E"/><path d="m50.94 77.916h46.46a1.75 1.75 0 0 0 0-3.5h-46.46a1.75 1.75 0 0 0 0 3.5z" data-original="#000000" class="active-path" data-old_color="#000000" fill="#0A184E"/><path d="m50.94 101h46.46a1.75 1.75 0 0 0 0-3.5h-46.46a1.75 1.75 0 1 0 0 3.5z" data-original="#000000" class="active-path" data-old_color="#000000" fill="#0A184E"/><path d="m112.655 4.75h-97.31a1.75 1.75 0 0 0 -1.745 1.75v115a1.75 1.75 0 0 0 1.75 1.75h97.31a1.75 1.75 0 0 0 1.75-1.75v-115a1.75 1.75 0 0 0 -1.755-1.75zm-1.75 115h-93.805v-111.5h93.81z" data-original="#000000" class="active-path" data-old_color="#000000" fill="#0A184E"/></g> </svg>
