<?xml version="1.0"?>
<svg xmlns="http://www.w3.org/2000/svg" height="512px" viewBox="0 0 474.95849 474" width="512px" class="hovered-paths"><g><path d="m278.921875 232.960938c0-4.417969-3.582031-8-8-8h-52.4375v-75.171876c0-4.417968-3.582031-8-8-8s-8 3.582032-8 8v82.933594c0 4.421875 3.214844 8.238282 7.632813 8.238282h60.804687c4.417969 0 8-3.582032 8-8zm0 0" data-original="#000000" class="hovered-path active-path" data-old_color="#000000" fill="#42B947"/><path d="m218.964844 438.410156c12.769531 0 25.515625-1.109375 38.09375-3.3125 31.273437 33.816406 78.542968 47.8125 123.1875 36.472656 44.644531-11.34375 79.5-46.203124 90.84375-90.84375 11.339844-44.644531-2.652344-91.914062-36.46875-123.1875 2.203125-12.578124 3.308594-25.324218 3.3125-38.09375 0-88.5625-53.351563-168.40625-135.171875-202.296874-81.820313-33.894532-176.003907-15.160157-238.625 47.464843-62.625 62.625-81.359375 156.804688-47.46875 238.628907 33.890625 81.820312 113.734375 135.171874 202.296875 135.171874zm240-88.679687c0 60.59375-49.121094 109.714843-109.710938 109.714843-60.59375 0-109.714844-49.121093-109.714844-109.714843s49.121094-109.714844 109.714844-109.714844c60.5625.070313 109.644532 49.152344 109.710938 109.714844zm-235.425782 0c0 6.960937.578126 13.910156 1.726563 20.773437-2.101563.085938-4.199219.140625-6.300781.140625-83.371094 0-151.199219-67.828125-151.199219-151.199219 0-83.371093 67.828125-151.199218 151.199219-151.199218s151.199218 67.828125 151.199218 151.199218c0 2.09375-.054687 4.199219-.140624 6.300782-36.460938-6.105469-73.765626 4.148437-101.984376 28.035156-28.21875 23.882812-44.496093 58.980469-44.5 95.949219zm-4.574218-333.25c111.917968 0 202.96875 91.046875 202.96875 202.964843-.007813 8.882813-.585938 17.753907-1.738282 26.558594-10.535156-7.230468-22.113281-12.8125-34.335937-16.542968.199219-3.335938.308594-6.683594.308594-10.011719 0-92.195313-75.003907-167.203125-167.199219-167.203125s-167.199219 75.007812-167.199219 167.203125c0 92.191406 75.003907 167.199219 167.199219 167.199219 3.332031 0 6.679688-.113282 10.011719-.308594 3.734375 12.222656 9.3125 23.800781 16.546875 34.335937-8.804688 1.152344-17.675782 1.734375-26.558594 1.738281-111.914062 0-202.964844-91.050781-202.964844-202.964843 0-111.917969 91.046875-202.96875 202.960938-202.96875zm0 0" data-original="#000000" class="hovered-path active-path" data-old_color="#000000" fill="#42B947"/><path d="m409.128906 296.960938h-24.644531v-1.089844c0-10.625-8-18.910156-18.34375-18.910156h-33.3125c-10.339844 0-18.34375 8.285156-18.34375 18.910156v1.089844h-24.644531c-10.339844 0-18.355469 8.382812-18.355469 19v76.199218c0 10.625 8.015625 18.800782 18.355469 18.800782h119.289062c10.339844 0 18.355469-8.175782 18.355469-18.800782v-76.191406c0-10.625-8.015625-19.007812-18.355469-19.007812zm-78.644531-1.089844c0-1.800782.828125-2.910156 2.34375-2.910156h33.3125c1.515625 0 2.34375 1.109374 2.34375 2.910156v1.089844h-38zm78.644531 99.089844h-119.289062c-1.515625 0-2.355469-1-2.355469-2.800782v-18.523437c.773437.171875 1.5625.277343 2.355469.324219h119.289062c.792969-.046876 1.582032-.152344 2.355469-.324219v18.523437c0 1.800782-.839844 2.800782-2.355469 2.800782zm2.355469-40.363282c0 1.800782-.839844 3.363282-2.355469 3.363282h-119.289062c-1.515625 0-2.355469-1.5625-2.355469-3.363282v-38.628906c0-1.800781.839844-3 2.355469-3h119.289062c1.515625 0 2.355469 1.199219 2.355469 3.003906v38.628906zm0 0" data-original="#000000" class="hovered-path active-path" data-old_color="#000000" fill="#42B947"/><path d="m360.484375 326.960938h-22c-4.417969 0-8 3.582031-8 8 0 4.417968 3.582031 8 8 8h22c4.417969 0 8-3.582032 8-8 0-4.417969-3.582031-8-8-8zm0 0" data-original="#000000" class="hovered-path active-path" data-old_color="#000000" fill="#42B947"/></g> </svg>
